<svg xmlns="http://www.w3.org/2000/svg" viewBox="0 0 486.3 486.3"><path d="M243.15 0v104.4c44.11 0 80 35.88 80 80 0 44.11-35.89 80-80 80v221.9l146.43-184.1a184.59 184.59 0 0 0 40.19-115.58C429.77 83.72 346.05 0 243.15 0z" data-original="#CD2A00" fill="#cd2a00"/><path d="M323.15 184.4c0-44.12-35.89-80-80-80v160c44.11 0 80-35.89 80-80z" data-original="#D8D7DA" fill="#d8d7da"/><path d="M163.15 184.4c0-44.12 35.89-80 80-80V0C140.25 0 56.53 83.72 56.53 186.62c0 42.37 13.9 82.33 40.23 115.62L243.15 486.3V264.4c-44.11 0-80-35.89-80-80z" data-original="#FF3501" fill="#ff3501"/><path d="M163.15 184.4c0 44.11 35.89 80 80 80v-160c-44.11 0-80 35.88-80 80z" data-original="#FFFFFF" class="active-path" fill="#fff"/></svg>